<svg xmlns="http://www.w3.org/2000/svg" xmlns:xlink="http://www.w3.org/1999/xlink" width="1366" zoomAndPan="magnify" viewBox="0 0 1024.5 576" height="768" preserveAspectRatio="xMidYMid meet" version="1.0"><defs><clipPath id="8c7592fccb"><path d="M 0 0.140625 L 1024 0.140625 L 1024 575.859375 L 0 575.859375 Z M 0 0.140625 " clip-rule="nonzero"/></clipPath><clipPath id="9027296f82"><path d="M 86.355469 36.792969 L 195.882812 36.792969 L 195.882812 146.320312 L 86.355469 146.320312 Z M 86.355469 36.792969 " clip-rule="nonzero"/></clipPath><clipPath id="8b203002e0"><path d="M 141.121094 36.792969 C 110.875 36.792969 86.355469 61.3125 86.355469 91.558594 C 86.355469 121.800781 110.875 146.320312 141.121094 146.320312 C 171.367188 146.320312 195.882812 121.800781 195.882812 91.558594 C 195.882812 61.3125 171.367188 36.792969 141.121094 36.792969 Z M 141.121094 36.792969 " clip-rule="nonzero"/></clipPath><clipPath id="413840beb8"><path d="M 857.371094 36.792969 L 966.898438 36.792969 L 966.898438 146.320312 L 857.371094 146.320312 Z M 857.371094 36.792969 " clip-rule="nonzero"/></clipPath><clipPath id="05d8df5dfa"><path d="M 912.136719 36.792969 C 881.890625 36.792969 857.371094 61.3125 857.371094 91.558594 C 857.371094 121.800781 881.890625 146.320312 912.136719 146.320312 C 942.382812 146.320312 966.898438 121.800781 966.898438 91.558594 C 966.898438 61.3125 942.382812 36.792969 912.136719 36.792969 Z M 912.136719 36.792969 " clip-rule="nonzero"/></clipPath><clipPath id="e01a1ef72c"><path d="M 324.394531 155.265625 L 433.921875 155.265625 L 433.921875 264.792969 L 324.394531 264.792969 Z M 324.394531 155.265625 " clip-rule="nonzero"/></clipPath><clipPath id="7c0ac50533"><path d="M 379.160156 155.265625 C 348.914062 155.265625 324.394531 179.785156 324.394531 210.03125 C 324.394531 240.277344 348.914062 264.792969 379.160156 264.792969 C 409.402344 264.792969 433.921875 240.277344 433.921875 210.03125 C 433.921875 179.785156 409.402344 155.265625 379.160156 155.265625 Z M 379.160156 155.265625 " clip-rule="nonzero"/></clipPath><clipPath id="9336e84ee9"><path d="M 24.175781 352.503906 L 133.703125 352.503906 L 133.703125 462.03125 L 24.175781 462.03125 Z M 24.175781 352.503906 " clip-rule="nonzero"/></clipPath><clipPath id="a6491c551c"><path d="M 78.9375 352.503906 C 48.695312 352.503906 24.175781 377.023438 24.175781 407.269531 C 24.175781 437.511719 48.695312 462.03125 78.9375 462.03125 C 109.183594 462.03125 133.703125 437.511719 133.703125 407.269531 C 133.703125 377.023438 109.183594 352.503906 78.9375 352.503906 Z M 78.9375 352.503906 " clip-rule="nonzero"/></clipPath><clipPath id="6938d2412a"><path d="M 894.289062 455.488281 L 1003.816406 455.488281 L 1003.816406 565.015625 L 894.289062 565.015625 Z M 894.289062 455.488281 " clip-rule="nonzero"/></clipPath><clipPath id="a5f42fccf9"><path d="M 949.050781 455.488281 C 918.808594 455.488281 894.289062 480.003906 894.289062 510.25 C 894.289062 540.496094 918.808594 565.015625 949.050781 565.015625 C 979.296875 565.015625 1003.816406 540.496094 1003.816406 510.25 C 1003.816406 480.003906 979.296875 455.488281 949.050781 455.488281 Z M 949.050781 455.488281 " clip-rule="nonzero"/></clipPath><clipPath id="59cb8e5906"><path d="M 702.289062 306.25 L 811.816406 306.25 L 811.816406 415.777344 L 702.289062 415.777344 Z M 702.289062 306.25 " clip-rule="nonzero"/></clipPath><clipPath id="97f2d52282"><path d="M 757.050781 306.25 C 726.804688 306.25 702.289062 330.769531 702.289062 361.011719 C 702.289062 391.257812 726.804688 415.777344 757.050781 415.777344 C 787.296875 415.777344 811.816406 391.257812 811.816406 361.011719 C 811.816406 330.769531 787.296875 306.25 757.050781 306.25 Z M 757.050781 306.25 " clip-rule="nonzero"/></clipPath><clipPath id="b84e883350"><path d="M 211.8125 21.738281 L 259.375 21.738281 L 259.375 69.300781 L 211.8125 69.300781 Z M 211.8125 21.738281 " clip-rule="nonzero"/></clipPath><clipPath id="e102a27453"><path d="M 235.59375 21.738281 C 222.460938 21.738281 211.8125 32.386719 211.8125 45.519531 C 211.8125 58.65625 222.460938 69.300781 235.59375 69.300781 C 248.726562 69.300781 259.375 58.65625 259.375 45.519531 C 259.375 32.386719 248.726562 21.738281 235.59375 21.738281 Z M 235.59375 21.738281 " clip-rule="nonzero"/></clipPath><clipPath id="0fd09c2031"><path d="M 718.652344 462.6875 L 766.214844 462.6875 L 766.214844 510.25 L 718.652344 510.25 Z M 718.652344 462.6875 " clip-rule="nonzero"/></clipPath><clipPath id="6edc6d973f"><path d="M 742.433594 462.6875 C 729.296875 462.6875 718.652344 473.335938 718.652344 486.46875 C 718.652344 499.601562 729.296875 510.25 742.433594 510.25 C 755.566406 510.25 766.214844 499.601562 766.214844 486.46875 C 766.214844 473.335938 755.566406 462.6875 742.433594 462.6875 Z M 742.433594 462.6875 " clip-rule="nonzero"/></clipPath><clipPath id="d646936e81"><path d="M 912.136719 337.230469 L 959.699219 337.230469 L 959.699219 384.796875 L 912.136719 384.796875 Z M 912.136719 337.230469 " clip-rule="nonzero"/></clipPath><clipPath id="4df00f94f8"><path d="M 935.917969 337.230469 C 922.785156 337.230469 912.136719 347.878906 912.136719 361.011719 C 912.136719 374.148438 922.785156 384.796875 935.917969 384.796875 C 949.050781 384.796875 959.699219 374.148438 959.699219 361.011719 C 959.699219 347.878906 949.050781 337.230469 935.917969 337.230469 Z M 935.917969 337.230469 " clip-rule="nonzero"/></clipPath><clipPath id="f1025c40f3"><path d="M 733.269531 27.628906 L 780.832031 27.628906 L 780.832031 75.191406 L 733.269531 75.191406 Z M 733.269531 27.628906 " clip-rule="nonzero"/></clipPath><clipPath id="42a6cec197"><path d="M 757.050781 27.628906 C 743.917969 27.628906 733.269531 38.277344 733.269531 51.410156 C 733.269531 64.546875 743.917969 75.191406 757.050781 75.191406 C 770.183594 75.191406 780.832031 64.546875 780.832031 51.410156 C 780.832031 38.277344 770.183594 27.628906 757.050781 27.628906 Z M 757.050781 27.628906 " clip-rule="nonzero"/></clipPath><clipPath id="506aa9d478"><path d="M 288.394531 328.722656 L 335.957031 328.722656 L 335.957031 376.285156 L 288.394531 376.285156 Z M 288.394531 328.722656 " clip-rule="nonzero"/></clipPath><clipPath id="ab094c6af0"><path d="M 312.175781 328.722656 C 299.042969 328.722656 288.394531 339.371094 288.394531 352.503906 C 288.394531 365.640625 299.042969 376.285156 312.175781 376.285156 C 325.308594 376.285156 335.957031 365.640625 335.957031 352.503906 C 335.957031 339.371094 325.308594 328.722656 312.175781 328.722656 Z M 312.175781 328.722656 " clip-rule="nonzero"/></clipPath><clipPath id="b14e452c25"><path d="M 62.574219 210.03125 L 110.140625 210.03125 L 110.140625 257.59375 L 62.574219 257.59375 Z M 62.574219 210.03125 " clip-rule="nonzero"/></clipPath><clipPath id="dab0a712a5"><path d="M 86.355469 210.03125 C 73.222656 210.03125 62.574219 220.679688 62.574219 233.8125 C 62.574219 246.945312 73.222656 257.59375 86.355469 257.59375 C 99.492188 257.59375 110.140625 246.945312 110.140625 233.8125 C 110.140625 220.679688 99.492188 210.03125 86.355469 210.03125 Z M 86.355469 210.03125 " clip-rule="nonzero"/></clipPath><clipPath id="bcecc5607f"><path d="M 568.542969 33.960938 L 616.105469 33.960938 L 616.105469 81.523438 L 568.542969 81.523438 Z M 568.542969 33.960938 " clip-rule="nonzero"/></clipPath><clipPath id="1fb60cab16"><path d="M 592.324219 33.960938 C 579.1875 33.960938 568.542969 44.605469 568.542969 57.742188 C 568.542969 70.875 579.1875 81.523438 592.324219 81.523438 C 605.457031 81.523438 616.105469 70.875 616.105469 57.742188 C 616.105469 44.605469 605.457031 33.960938 592.324219 33.960938 Z M 592.324219 33.960938 " clip-rule="nonzero"/></clipPath><clipPath id="42710f03e2"><path d="M 555.449219 191.703125 L 603.011719 191.703125 L 603.011719 239.265625 L 555.449219 239.265625 Z M 555.449219 191.703125 " clip-rule="nonzero"/></clipPath><clipPath id="f6461df5cd"><path d="M 579.230469 191.703125 C 566.097656 191.703125 555.449219 202.351562 555.449219 215.484375 C 555.449219 228.621094 566.097656 239.265625 579.230469 239.265625 C 592.367188 239.265625 603.011719 228.621094 603.011719 215.484375 C 603.011719 202.351562 592.367188 191.703125 579.230469 191.703125 Z M 579.230469 191.703125 " clip-rule="nonzero"/></clipPath><clipPath id="593d3423c9"><path d="M 117.339844 510.25 L 164.902344 510.25 L 164.902344 557.8125 L 117.339844 557.8125 Z M 117.339844 510.25 " clip-rule="nonzero"/></clipPath><clipPath id="e9efc6294f"><path d="M 141.121094 510.25 C 127.988281 510.25 117.339844 520.898438 117.339844 534.03125 C 117.339844 547.167969 127.988281 557.8125 141.121094 557.8125 C 154.253906 557.8125 164.902344 547.167969 164.902344 534.03125 C 164.902344 520.898438 154.253906 510.25 141.121094 510.25 Z M 141.121094 510.25 " clip-rule="nonzero"/></clipPath><clipPath id="0f519fc764"><path d="M 117.339844 179.703125 L 141.339844 179.703125 L 141.339844 203.703125 L 117.339844 203.703125 Z M 117.339844 179.703125 " clip-rule="nonzero"/></clipPath><clipPath id="06a5fe4bfc"><path d="M 129.339844 179.703125 C 122.710938 179.703125 117.339844 185.078125 117.339844 191.703125 C 117.339844 198.332031 122.710938 203.703125 129.339844 203.703125 C 135.96875 203.703125 141.339844 198.332031 141.339844 191.703125 C 141.339844 185.078125 135.96875 179.703125 129.339844 179.703125 Z M 129.339844 179.703125 " clip-rule="nonzero"/></clipPath><clipPath id="29256e3d6a"><path d="M 709.269531 146.320312 L 733.269531 146.320312 L 733.269531 170.320312 L 709.269531 170.320312 Z M 709.269531 146.320312 " clip-rule="nonzero"/></clipPath><clipPath id="fc70cb751b"><path d="M 721.269531 146.320312 C 714.640625 146.320312 709.269531 151.695312 709.269531 158.320312 C 709.269531 164.949219 714.640625 170.320312 721.269531 170.320312 C 727.898438 170.320312 733.269531 164.949219 733.269531 158.320312 C 733.269531 151.695312 727.898438 146.320312 721.269531 146.320312 Z M 721.269531 146.320312 " clip-rule="nonzero"/></clipPath><clipPath id="64853b697c"><path d="M 818.25 438.6875 L 842.253906 438.6875 L 842.253906 462.6875 L 818.25 462.6875 Z M 818.25 438.6875 " clip-rule="nonzero"/></clipPath><clipPath id="1eba82d64e"><path d="M 830.25 438.6875 C 823.625 438.6875 818.25 444.058594 818.25 450.6875 C 818.25 457.316406 823.625 462.6875 830.25 462.6875 C 836.878906 462.6875 842.253906 457.316406 842.253906 450.6875 C 842.253906 444.058594 836.878906 438.6875 830.25 438.6875 Z M 830.25 438.6875 " clip-rule="nonzero"/></clipPath><clipPath id="0bb1e70d97"><path d="M 979.816406 179.703125 L 1003.816406 179.703125 L 1003.816406 203.703125 L 979.816406 203.703125 Z M 979.816406 179.703125 " clip-rule="nonzero"/></clipPath><clipPath id="e15891511e"><path d="M 991.816406 179.703125 C 985.1875 179.703125 979.816406 185.078125 979.816406 191.703125 C 979.816406 198.332031 985.1875 203.703125 991.816406 203.703125 C 998.441406 203.703125 1003.816406 198.332031 1003.816406 191.703125 C 1003.816406 185.078125 998.441406 179.703125 991.816406 179.703125 Z M 991.816406 179.703125 " clip-rule="nonzero"/></clipPath><clipPath id="90143419a9"><path d="M 17.628906 15.628906 L 41.628906 15.628906 L 41.628906 39.632812 L 17.628906 39.632812 Z M 17.628906 15.628906 " clip-rule="nonzero"/></clipPath><clipPath id="89974cec56"><path d="M 29.628906 15.628906 C 23.003906 15.628906 17.628906 21.003906 17.628906 27.628906 C 17.628906 34.257812 23.003906 39.632812 29.628906 39.632812 C 36.257812 39.632812 41.628906 34.257812 41.628906 27.628906 C 41.628906 21.003906 36.257812 15.628906 29.628906 15.628906 Z M 29.628906 15.628906 " clip-rule="nonzero"/></clipPath><clipPath id="c1544a9eb2"><path d="M 974.144531 12.792969 L 998.144531 12.792969 L 998.144531 36.792969 L 974.144531 36.792969 Z M 974.144531 12.792969 " clip-rule="nonzero"/></clipPath><clipPath id="b72c1618a5"><path d="M 986.144531 12.792969 C 979.515625 12.792969 974.144531 18.164062 974.144531 24.792969 C 974.144531 31.421875 979.515625 36.792969 986.144531 36.792969 C 992.773438 36.792969 998.144531 31.421875 998.144531 24.792969 C 998.144531 18.164062 992.773438 12.792969 986.144531 12.792969 Z M 986.144531 12.792969 " clip-rule="nonzero"/></clipPath><clipPath id="dcc9fc9a3e"><path d="M 45.597656 518.539062 L 69.601562 518.539062 L 69.601562 542.542969 L 45.597656 542.542969 Z M 45.597656 518.539062 " clip-rule="nonzero"/></clipPath><clipPath id="c469fe7578"><path d="M 57.601562 518.539062 C 50.972656 518.539062 45.597656 523.914062 45.597656 530.539062 C 45.597656 537.167969 50.972656 542.542969 57.601562 542.542969 C 64.226562 542.542969 69.601562 537.167969 69.601562 530.539062 C 69.601562 523.914062 64.226562 518.539062 57.601562 518.539062 Z M 57.601562 518.539062 " clip-rule="nonzero"/></clipPath><clipPath id="9fe4ec02fc"><path d="M 324 494 L 377 494 L 377 547 L 324 547 Z M 324 494 " clip-rule="nonzero"/></clipPath><clipPath id="ea87c4429c"><path d="M 381.050781 500.074219 L 371.042969 551.375 L 319.742188 541.371094 L 329.746094 490.066406 Z M 381.050781 500.074219 " clip-rule="nonzero"/></clipPath><clipPath id="a127692e51"><path d="M 376.046875 525.726562 C 378.808594 511.558594 369.566406 497.832031 355.398438 495.070312 C 341.230469 492.308594 327.507812 501.550781 324.742188 515.71875 C 321.980469 529.886719 331.226562 543.609375 345.394531 546.375 C 359.558594 549.136719 373.285156 539.890625 376.046875 525.726562 Z M 376.046875 525.726562 " clip-rule="nonzero"/></clipPath><clipPath id="753eb10929"><path d="M 411 418 L 464 418 L 464 471 L 411 471 Z M 411 418 " clip-rule="nonzero"/></clipPath><clipPath id="104964909f"><path d="M 468.496094 423.773438 L 458.488281 475.074219 L 407.1875 465.070312 L 417.191406 413.765625 Z M 468.496094 423.773438 " clip-rule="nonzero"/></clipPath><clipPath id="6700a8fecb"><path d="M 463.492188 449.421875 C 466.253906 435.257812 457.011719 421.53125 442.84375 418.769531 C 428.675781 416.007812 414.953125 425.25 412.1875 439.417969 C 409.425781 453.585938 418.671875 467.308594 432.835938 470.074219 C 447.003906 472.835938 460.730469 463.589844 463.492188 449.421875 Z M 463.492188 449.421875 " clip-rule="nonzero"/></clipPath><clipPath id="2a29570ba1"><path d="M 369 414 L 392 414 L 392 438 L 369 438 Z M 369 414 " clip-rule="nonzero"/></clipPath><clipPath id="4a561e5360"><path d="M 393.722656 417.144531 L 389.378906 439.425781 L 367.097656 435.078125 L 371.445312 412.800781 Z M 393.722656 417.144531 " clip-rule="nonzero"/></clipPath><clipPath id="7c12f45f72"><path d="M 391.550781 428.285156 C 392.75 422.132812 388.734375 416.171875 382.582031 414.972656 C 376.433594 413.773438 370.472656 417.789062 369.273438 423.941406 C 368.070312 430.089844 372.085938 436.050781 378.238281 437.25 C 384.390625 438.453125 390.351562 434.4375 391.550781 428.285156 Z M 391.550781 428.285156 " clip-rule="nonzero"/></clipPath><clipPath id="f11d54b1cd"><path d="M 410 516 L 433 516 L 433 540 L 410 540 Z M 410 516 " clip-rule="nonzero"/></clipPath><clipPath id="8bc108fca0"><path d="M 434.8125 519.238281 L 430.464844 541.515625 L 408.1875 537.171875 L 412.53125 514.890625 Z M 434.8125 519.238281 " clip-rule="nonzero"/></clipPath><clipPath id="5c52af5a42"><path d="M 432.640625 530.375 C 433.839844 524.222656 429.824219 518.265625 423.671875 517.0625 C 417.519531 515.863281 411.558594 519.878906 410.359375 526.03125 C 409.160156 532.183594 413.175781 538.144531 419.328125 539.34375 C 425.480469 540.542969 431.4375 536.527344 432.640625 530.375 Z M 432.640625 530.375 " clip-rule="nonzero"/></clipPath><clipPath id="88edae87cf"><path d="M 383 464 L 395 464 L 395 477 L 383 477 Z M 383 464 " clip-rule="nonzero"/></clipPath><clipPath id="7b7a2db87f"><path d="M 395.867188 465.992188 L 393.671875 477.234375 L 382.429688 475.039062 L 384.625 463.796875 Z M 395.867188 465.992188 " clip-rule="nonzero"/></clipPath><clipPath id="2745841860"><path d="M 394.769531 471.613281 C 395.375 468.507812 393.351562 465.5 390.246094 464.894531 C 387.140625 464.289062 384.132812 466.316406 383.527344 469.417969 C 382.921875 472.523438 384.949219 475.53125 388.050781 476.136719 C 391.15625 476.742188 394.164062 474.71875 394.769531 471.613281 Z M 394.769531 471.613281 " clip-rule="nonzero"/></clipPath></defs><g clip-path="url(#8c7592fccb)"><path fill="#ffffff" d="M 0 0.140625 L 1024.5 0.140625 L 1024.5 576.140625 L 0 576.140625 Z M 0 0.140625 " fill-opacity="1" fill-rule="nonzero"/><path fill="#00afb9" d="M 0 0.140625 L 1024.5 0.140625 L 1024.5 576.140625 L 0 576.140625 Z M 0 0.140625 " fill-opacity="1" fill-rule="nonzero"/></g><g clip-path="url(#9027296f82)"><g clip-path="url(#8b203002e0)"><path fill="#01cbd7" d="M 86.355469 36.792969 L 195.882812 36.792969 L 195.882812 146.320312 L 86.355469 146.320312 Z M 86.355469 36.792969 " fill-opacity="1" fill-rule="nonzero"/></g></g><g clip-path="url(#413840beb8)"><g clip-path="url(#05d8df5dfa)"><path fill="#01cbd7" d="M 857.371094 36.792969 L 966.898438 36.792969 L 966.898438 146.320312 L 857.371094 146.320312 Z M 857.371094 36.792969 " fill-opacity="1" fill-rule="nonzero"/></g></g><g clip-path="url(#e01a1ef72c)"><g clip-path="url(#7c0ac50533)"><path fill="#01cbd7" d="M 324.394531 155.265625 L 433.921875 155.265625 L 433.921875 264.792969 L 324.394531 264.792969 Z M 324.394531 155.265625 " fill-opacity="1" fill-rule="nonzero"/></g></g><g clip-path="url(#9336e84ee9)"><g clip-path="url(#a6491c551c)"><path fill="#01cbd7" d="M 24.175781 352.503906 L 133.703125 352.503906 L 133.703125 462.03125 L 24.175781 462.03125 Z M 24.175781 352.503906 " fill-opacity="1" fill-rule="nonzero"/></g></g><g clip-path="url(#6938d2412a)"><g clip-path="url(#a5f42fccf9)"><path fill="#01cbd7" d="M 894.289062 455.488281 L 1003.816406 455.488281 L 1003.816406 565.015625 L 894.289062 565.015625 Z M 894.289062 455.488281 " fill-opacity="1" fill-rule="nonzero"/></g></g><g clip-path="url(#59cb8e5906)"><g clip-path="url(#97f2d52282)"><path fill="#01cbd7" d="M 702.289062 306.25 L 811.816406 306.25 L 811.816406 415.777344 L 702.289062 415.777344 Z M 702.289062 306.25 " fill-opacity="1" fill-rule="nonzero"/></g></g><g clip-path="url(#b84e883350)"><g clip-path="url(#e102a27453)"><path fill="#01cbd7" d="M 211.8125 21.738281 L 259.375 21.738281 L 259.375 69.300781 L 211.8125 69.300781 Z M 211.8125 21.738281 " fill-opacity="1" fill-rule="nonzero"/></g></g><g clip-path="url(#0fd09c2031)"><g clip-path="url(#6edc6d973f)"><path fill="#01cbd7" d="M 718.652344 462.6875 L 766.214844 462.6875 L 766.214844 510.25 L 718.652344 510.25 Z M 718.652344 462.6875 " fill-opacity="1" fill-rule="nonzero"/></g></g><g clip-path="url(#d646936e81)"><g clip-path="url(#4df00f94f8)"><path fill="#01cbd7" d="M 912.136719 337.230469 L 959.699219 337.230469 L 959.699219 384.796875 L 912.136719 384.796875 Z M 912.136719 337.230469 " fill-opacity="1" fill-rule="nonzero"/></g></g><g clip-path="url(#f1025c40f3)"><g clip-path="url(#42a6cec197)"><path fill="#01cbd7" d="M 733.269531 27.628906 L 780.832031 27.628906 L 780.832031 75.191406 L 733.269531 75.191406 Z M 733.269531 27.628906 " fill-opacity="1" fill-rule="nonzero"/></g></g><g clip-path="url(#506aa9d478)"><g clip-path="url(#ab094c6af0)"><path fill="#01cbd7" d="M 288.394531 328.722656 L 335.957031 328.722656 L 335.957031 376.285156 L 288.394531 376.285156 Z M 288.394531 328.722656 " fill-opacity="1" fill-rule="nonzero"/></g></g><g clip-path="url(#b14e452c25)"><g clip-path="url(#dab0a712a5)"><path fill="#01cbd7" d="M 62.574219 210.03125 L 110.140625 210.03125 L 110.140625 257.59375 L 62.574219 257.59375 Z M 62.574219 210.03125 " fill-opacity="1" fill-rule="nonzero"/></g></g><g clip-path="url(#bcecc5607f)"><g clip-path="url(#1fb60cab16)"><path fill="#01cbd7" d="M 568.542969 33.960938 L 616.105469 33.960938 L 616.105469 81.523438 L 568.542969 81.523438 Z M 568.542969 33.960938 " fill-opacity="1" fill-rule="nonzero"/></g></g><g clip-path="url(#42710f03e2)"><g clip-path="url(#f6461df5cd)"><path fill="#01cbd7" d="M 555.449219 191.703125 L 603.011719 191.703125 L 603.011719 239.265625 L 555.449219 239.265625 Z M 555.449219 191.703125 " fill-opacity="1" fill-rule="nonzero"/></g></g><g clip-path="url(#593d3423c9)"><g clip-path="url(#e9efc6294f)"><path fill="#01cbd7" d="M 117.339844 510.25 L 164.902344 510.25 L 164.902344 557.8125 L 117.339844 557.8125 Z M 117.339844 510.25 " fill-opacity="1" fill-rule="nonzero"/></g></g><g clip-path="url(#0f519fc764)"><g clip-path="url(#06a5fe4bfc)"><path fill="#01cbd7" d="M 117.339844 179.703125 L 141.339844 179.703125 L 141.339844 203.703125 L 117.339844 203.703125 Z M 117.339844 179.703125 " fill-opacity="1" fill-rule="nonzero"/></g></g><g clip-path="url(#29256e3d6a)"><g clip-path="url(#fc70cb751b)"><path fill="#01cbd7" d="M 709.269531 146.320312 L 733.269531 146.320312 L 733.269531 170.320312 L 709.269531 170.320312 Z M 709.269531 146.320312 " fill-opacity="1" fill-rule="nonzero"/></g></g><g clip-path="url(#64853b697c)"><g clip-path="url(#1eba82d64e)"><path fill="#01cbd7" d="M 818.25 438.6875 L 842.253906 438.6875 L 842.253906 462.6875 L 818.25 462.6875 Z M 818.25 438.6875 " fill-opacity="1" fill-rule="nonzero"/></g></g><g clip-path="url(#0bb1e70d97)"><g clip-path="url(#e15891511e)"><path fill="#01cbd7" d="M 979.816406 179.703125 L 1003.816406 179.703125 L 1003.816406 203.703125 L 979.816406 203.703125 Z M 979.816406 179.703125 " fill-opacity="1" fill-rule="nonzero"/></g></g><g clip-path="url(#90143419a9)"><g clip-path="url(#89974cec56)"><path fill="#01cbd7" d="M 17.628906 15.628906 L 41.628906 15.628906 L 41.628906 39.632812 L 17.628906 39.632812 Z M 17.628906 15.628906 " fill-opacity="1" fill-rule="nonzero"/></g></g><g clip-path="url(#c1544a9eb2)"><g clip-path="url(#b72c1618a5)"><path fill="#01cbd7" d="M 974.144531 12.792969 L 998.144531 12.792969 L 998.144531 36.792969 L 974.144531 36.792969 Z M 974.144531 12.792969 " fill-opacity="1" fill-rule="nonzero"/></g></g><g clip-path="url(#dcc9fc9a3e)"><g clip-path="url(#c469fe7578)"><path fill="#01cbd7" d="M 45.597656 518.539062 L 69.601562 518.539062 L 69.601562 542.542969 L 45.597656 542.542969 Z M 45.597656 518.539062 " fill-opacity="1" fill-rule="nonzero"/></g></g><g clip-path="url(#9fe4ec02fc)"><g clip-path="url(#ea87c4429c)"><g clip-path="url(#a127692e51)"><path fill="#01cbd7" d="M 381.050781 500.074219 L 371.042969 551.375 L 319.742188 541.371094 L 329.746094 490.066406 Z M 381.050781 500.074219 " fill-opacity="1" fill-rule="nonzero"/></g></g></g><g clip-path="url(#753eb10929)"><g clip-path="url(#104964909f)"><g clip-path="url(#6700a8fecb)"><path fill="#01cbd7" d="M 468.496094 423.773438 L 458.488281 475.074219 L 407.1875 465.070312 L 417.191406 413.765625 Z M 468.496094 423.773438 " fill-opacity="1" fill-rule="nonzero"/></g></g></g><g clip-path="url(#2a29570ba1)"><g clip-path="url(#4a561e5360)"><g clip-path="url(#7c12f45f72)"><path fill="#01cbd7" d="M 393.722656 417.144531 L 389.378906 439.425781 L 367.097656 435.078125 L 371.445312 412.800781 Z M 393.722656 417.144531 " fill-opacity="1" fill-rule="nonzero"/></g></g></g><g clip-path="url(#f11d54b1cd)"><g clip-path="url(#8bc108fca0)"><g clip-path="url(#5c52af5a42)"><path fill="#01cbd7" d="M 434.8125 519.238281 L 430.464844 541.515625 L 408.1875 537.171875 L 412.53125 514.890625 Z M 434.8125 519.238281 " fill-opacity="1" fill-rule="nonzero"/></g></g></g><g clip-path="url(#88edae87cf)"><g clip-path="url(#7b7a2db87f)"><g clip-path="url(#2745841860)"><path fill="#01cbd7" d="M 395.867188 465.992188 L 393.671875 477.234375 L 382.429688 475.039062 L 384.625 463.796875 Z M 395.867188 465.992188 " fill-opacity="1" fill-rule="nonzero"/></g></g></g></svg>